<svg xmlns="http://www.w3.org/2000/svg" viewBox="0 0 24 24" role="img" aria-label="GitHub icon"><path fill="currentColor" d="M12 .5C5.65.5.5 5.65 5.65 0 12 0 17.42 3.44 22 8.2 23.68c.6.11.82-.26.82-.58v-2.16c-3.34.73-4.04-1.43-4.04-1.43-.54-1.38-1.32-1.75-1.32-1.75-1.08-.74.08-.73.08-.73 1.2.08 1.83 1.24 1.83 1.24 1.06 1.82 2.78 1.29 3.46.99.11-.77.42-1.29.76-1.59-2.66-.3-5.47-1.33-5.47-5.92 0-1.31.47-2.38 1.24-3.22-.13-.3-.54-1.52.12-3.17 0 0 1.01-.32 3.3 1.24a11.4 11.4 0 0 1 6.01 0c2.29-1.56 3.3-1.24 3.3-1.24.66 1.65.25 2.87.12 3.17.77.84 1.24 1.91 1.24 3.22 0 4.6-2.82 5.62-5.5 5.92.43.37.81 1.1.81 2.22v3.29c0 .32.21.69.83.58A12.03 12.03 0 0 0 24 12c0-6.35-5.15-11.5-11.5-11.5Z"/></svg>