<svg width="32" height="32" viewBox="0 0 32 32" fill="none" xmlns="http://www.w3.org/2000/svg">
<rect width="32" height="32" rx="4" fill="#000000"/>
<path d="M26 8.5C25.1 8.9 24.1 9.1 23 9.2C24.1 8.5 24.9 7.5 25.3 6.3C24.2 7 23 7.4 21.7 7.7C20.8 6.7 19.5 6 18 6C15.2 6 13 8.2 13 10.9C13 11.3 13 11.7 13.1 12.1C10 12 7.1 10.6 5.1 8.3C4.6 9.2 4.3 10.3 4.3 11.5C4.3 13.8 5.5 15.8 7.3 16.9C6.5 16.9 5.8 16.7 5.1 16.4V16.5C5.1 18.8 6.7 20.7 8.9 21.1C8.4 21.3 7.9 21.3 7.3 21.3C7 21.3 6.6 21.3 6.3 21.2C7 23.1 8.8 24.5 11 24.5C9.4 25.8 7.4 26.6 5.2 26.6C4.8 26.6 4.4 26.6 4 26.5C6.2 27.9 8.9 28.8 11.9 28.8C18 28.8 22.3 21.4 22.3 15.1C22.3 14.9 22.3 14.6 22.3 14.4C23.3 13.6 24.2 12.6 25 11.5C24.1 11.9 23.1 12.2 22 12.3C23.1 11.6 23.9 10.6 24.3 9.5C23.3 10.1 22.1 10.5 20.9 10.8C20 9.8 18.6 9.1 17.1 9.1C14.3 9.1 12 11.4 12 14.2C12 14.6 12 15 12.1 15.4C8.9 15.2 6.1 13.6 4.2 11.2C3.7 12.2 3.4 13.3 3.4 14.5C3.4 16.8 4.6 18.8 6.4 19.9C5.6 19.8 4.9 19.6 4.3 19.3V19.4C4.3 21.7 6 23.6 8.2 24C7.7 24.2 7.2 24.2 6.6 24.2C6.3 24.2 5.9 24.2 5.6 24.1C6.3 26 8.1 27.4 10.3 27.4C8.7 28.7 6.7 29.5 4.5 29.5C4.1 29.5 3.7 29.5 3.3 29.4C5.5 30.9 8.2 31.8 11.2 31.8C18 31.8 22.3 24.4 22.3 18C22.3 17.7 22.3 17.4 22.3 17.1C23.3 16.3 24.2 15.3 25 14.1Z" fill="white"/>
</svg>