<svg width="32" height="32" viewBox="0 0 32 32" fill="none" xmlns="http://www.w3.org/2000/svg">
<rect width="32" height="32" rx="4" fill="#FF0000"/>
<path d="M28 10.5C27.8 9.6 27.1 8.9 26.2 8.7C24.2 8.5 20 8 16 8C12 8 7.8 8.5 5.8 8.7C4.9 8.9 4.2 9.6 4 10.5C3.7 12.8 3.5 14.4 3.5 16C3.5 17.6 3.7 19.2 4 21.5C4.2 22.4 4.9 23.1 5.8 23.3C7.8 23.5 12 24 16 24C20 24 24.2 23.5 26.2 23.3C27.1 23.1 27.8 22.4 28 21.5C28.3 19.2 28.5 17.6 28.5 16C28.5 14.4 28.3 12.8 28 10.5ZM13 19.5V12.5L21 16L13 19.5Z" fill="white"/>
</svg>